<svg id="Layer_1" data-name="Layer 1" xmlns="http://www.w3.org/2000/svg" width="16.56" height="30.78" viewBox="0 0 16.56 30.78">
  <g id="breadboard">
    <g id="g8">
      <path id="END_1" d="M2.84,8.8,1.62,10a4.85,4.85,0,0,0-1.4,2.61A19.86,19.86,0,0,0,0,16.38v14.4H2.16V16.38h0a19.2,19.2,0,0,1,.17-3.32,2.74,2.74,0,0,1,.82-1.52l1.21-1.21Z" transform="translate(0 0)" fill="#8c8c8c"/>
      <path id="END_2" d="M16.56,16.38h0a19.86,19.86,0,0,0-.22-3.75A4.85,4.85,0,0,0,14.94,10L13.72,8.8,12.2,10.33l1.21,1.21a2.67,2.67,0,0,1,.81,1.52,18,18,0,0,1,.18,3.32h0v14.4h2.16V16.38Z" transform="translate(0 0)" fill="#8c8c8c"/>
      <circle id="circle14" cx="8.28" cy="6.51" r="6.51" fill="#555"/>
      <path id="path18" d="M2,8.08c.1.35-.05.52-.2.77s-.37.39-.68.81a3,3,0,0,0-.49,1.08,1.14,1.14,0,0,0,0,.67l1.84,1.28a1,1,0,0,0,.35-.25c.1-.12.34-.32.46-.44a.81.81,0,0,1,.67-.31,1,1,0,0,1,.72.2c.3.22,1.48-1,1.48-1L3.51,9.12,2.36,7.71S1.88,7.73,2,8.08Z" transform="translate(0 0)" fill="#555"/>
      <path id="path20" d="M14.58,8.08a.81.81,0,0,0,.2.77c.16.24.37.39.68.81A3.21,3.21,0,0,1,16,10.74a1.26,1.26,0,0,1,0,.67l-1.84,1.28a1,1,0,0,1-.35-.25c-.1-.12-.34-.32-.46-.44a.83.83,0,0,0-.68-.31,1,1,0,0,0-.71.2c-.31.22-1.48-1-1.48-1l2.6-1.75L14.2,7.71S14.68,7.73,14.58,8.08Z" transform="translate(0 0)" fill="#555"/>
      <path id="path22" d="M13.19,11.88a2.09,2.09,0,0,0-1.38-1c-.43,0-2.09.32-2.81.32s-2.47-.36-3-.36a6,6,0,0,0-1.64.22A2,2,0,0,0,3.09,12c-.11.18-.19.29-.24.37L3.24,12a.85.85,0,0,1,.68-.3,1,1,0,0,1,.71.2h0a6.51,6.51,0,0,0,7.3,0h0a1,1,0,0,1,.72-.2A.78.78,0,0,1,13.19,11.88Z" transform="translate(0 0)" opacity="0.3" style="isolation: isolate"/>
      <path id="path24" d="M14.33,9.22a3.65,3.65,0,0,1,1.58,1.39,2.7,2.7,0,0,0-.46-.95c-.3-.42-.51-.57-.67-.81a.87.87,0,0,1-.21-.73,6.07,6.07,0,0,0,.21-1.61,6.46,6.46,0,0,0-.85-3.21A3.25,3.25,0,0,1,14,4a22.87,22.87,0,0,1-.2,2.39,11.44,11.44,0,0,0-.36,1.73C13.46,8.67,14.16,9.14,14.33,9.22Z" transform="translate(0 0)" opacity="0.3" style="isolation: isolate"/>
      <path id="path26" d="M6.75,1c-.44,0-.8.18-.81.43a.37.37,0,0,0,.19.27c.34,0,.69.08,1,.1s.37-.2.37-.35S7.19,1,6.75,1Z" transform="translate(0 0)" fill="#fff" opacity="0.4" style="isolation: isolate"/>
    </g>
  </g>
  <rect id="connector0pin" y="23.58" width="2.16" height="7.2" fill="none"/>
  <rect id="connector0terminal" y="30.06" width="2.16" height="0.72" fill="none"/>
  <rect id="connector1terminal" x="14.4" y="30.06" width="2.16" height="0.72" fill="none"/>
  <rect id="connector1pin" x="14.4" y="23.58" width="2.16" height="7.2" fill="none"/>
</svg>
